<svg id="Layer_1" data-name="Layer 1" xmlns="http://www.w3.org/2000/svg" viewBox="0 0 363.54 234.14"><defs><style>.cls-1,.cls-3{fill:#fff;}.cls-2{font-size:58.85px;fill:#f6dc4a;}.cls-2,.cls-3{font-family:HotPizza, Hot Pizza;}.cls-3{font-size:49.15px;}.cls-4{font-size:15.96px;font-family:MVBoli, MV Boli;}.cls-4,.cls-5{fill:#f3da4b;}</style></defs><title>Artboard 3</title><path class="cls-1" d="M7.51,200.2a10.34,10.34,0,0,1-3.07-7.38V126.58a10.37,10.37,0,0,1,5.44-9.13A363.25,363.25,0,0,1,158.67,74.54a44.57,44.57,0,0,1-4.79-4.11A368.43,368.43,0,0,0,7.76,113.54a14.82,14.82,0,0,0-7.76,13v66.24a14.83,14.83,0,0,0,14.83,14.84h.08l74.84-.39v-4.44l-74.86.39A10.4,10.4,0,0,1,7.51,200.2Zm348.3-86.65A368.31,368.31,0,0,0,216.49,71a42.34,42.34,0,0,1-4.87,4,363.58,363.58,0,0,1,142.07,42.43,10.36,10.36,0,0,1,5.42,9.12v65.79a10.41,10.41,0,0,1-10.82,10.4l-81.59-3.24V204l81.42,3.22a14.85,14.85,0,0,0,15.42-14.83V126.58A14.81,14.81,0,0,0,355.81,113.55Z"/><text class="cls-2" transform="translate(29.76 174.29)">FLAVORED</text><text class="cls-3" transform="translate(109.58 216.6)">STOP</text><text class="cls-4" transform="translate(100.43 229.39)">Let’s meet at taste!</text><path class="cls-5" d="M185.49,0a39.76,39.76,0,0,0-31.65,63.84h-.1l.29.25a40,40,0,0,0,10.24,9.31C173,82,175.92,87.12,176.59,90.35c.19.89,1,5.65,4.59,8.08a7.11,7.11,0,0,0,8.2.2c3.17-2,4-6.17,4.16-7.06.7-3,3.76-8.38,13.51-18.39A39.76,39.76,0,0,0,185.49,0Zm-16,30.47c.4-.33.91-.22,1.41.31,2,2.17,4.07,4.34,6.12,6.51.14.15.31.37.48.38a1.24,1.24,0,0,0,.88-.21,1.27,1.27,0,0,0,.15-1c0-.22-.3-.41-.47-.59l-6.22-6.22c-.35-.34-.58-.7-.35-1.18s.94-.63,1.53-.05c1.6,1.59,3.21,3.2,4.81,4.81l1.61,1.6c.51.51,1,.57,1.4.17s.29-.91-.24-1.41l-5.48-5.14c-.42-.39-.83-.78-1.23-1.18a.79.79,0,0,1,0-1.19.8.8,0,0,1,1.2,0l8.81,7.67a4,4,0,0,1,1.44,4,3.36,3.36,0,0,0,.73,2.89l-2,2c-1.08-.94-2.37-.8-3.7-.62a2.89,2.89,0,0,1-2.56-.94q-3.45-3.81-6.87-7.64c-.45-.5-.89-1-1.31-1.58S169,30.84,169.48,30.47Zm-6.22,16.22.35,2.1-1.88-1-1.89,1,.36-2.1-1.53-1.49,2.11-.31.95-1.91.94,1.91,2.11.31Zm7.8,1.79-1.89-1-1.89,1,.36-2.1-1.53-1.49,2.12-.3.94-1.92,1,1.92,2.11.3-1.54,1.49Zm6.39,9.62a3.42,3.42,0,0,1-2.5,1.27,2,2,0,0,1-2-2.68,6,6,0,0,1,1.7-2.57l23.65-23.54,3.48-3.43c.18-.18.38-.34.63-.56a1.56,1.56,0,0,1,.27,1.84,49,49,0,0,1-2.45,5,68,68,0,0,1-6.86,9.32A4.43,4.43,0,0,1,190,44.6a2.08,2.08,0,0,0-1.53.88C184.84,49.7,181.15,53.89,177.45,58.1Zm24.76.84a2,2,0,0,1-2.23.41,5.62,5.62,0,0,1-1.78-1.08c-2.37-2.51-4.67-5.06-7-7.61-.89-1-1.76-2-2.69-3.08.42-.5.78-1,1.18-1.4a2,2,0,0,1,2.14-.17c2.95,2.64,5.91,5.27,8.84,7.94a17.16,17.16,0,0,1,1.59,1.81,2.65,2.65,0,0,1,.43,1A2.13,2.13,0,0,1,202.21,58.94Zm2.48-11.14-1.89-1-1.89,1,.36-2.1-1.52-1.49,2.11-.32.94-1.9.95,1.9,2.11.32-1.54,1.49Zm7.3-1-1.89,1,.36-2.1-1.53-1.49,2.11-.32,1-1.9.94,1.9,2.11.32-1.53,1.49.37,2.1Z"/><ellipse class="cls-1" cx="185.85" cy="109.05" rx="12.63" ry="1.13"/></svg>